<?xml version="1.0" encoding="utf-8"?>
<svg xmlns="http://www.w3.org/2000/svg" xmlns:xlink="http://www.w3.org/1999/xlink" xml:space="preserve" width="928" height="928" viewBox="0 0 928 928"><rect width="928" height="928" fill="#ffffff" x="0" y="0"/><g fill="#000000">
<g transform="translate(448,64) scale(5.4933333333333)"><circle cx="3" cy="3" r="3"/></g>
<g transform="translate(544,64) scale(5.4933333333333)"><path d="M6,6H0V3c0-1.7,1.3-3,3-3l3,0V6z"/></g>
<g transform="translate(576,64) scale(5.4933333333333)"><path d="M6,6H0V0l3,0c1.7,0,3,1.3,3,3V6z"/></g>
<g transform="translate(320,96) scale(5.4933333333333)"><circle cx="3" cy="3" r="3"/></g>
<g transform="translate(384,96) scale(5.4933333333333)"><circle cx="3" cy="3" r="3"/></g>
<g transform="translate(512,96) scale(5.4933333333333)"><path d="M6,6H3C1.3,6,0,4.7,0,3v0c0-1.7,1.3-3,3-3h3C6,0,6,6,6,6z"/></g>
<g transform="translate(544,96) scale(5.4933333333333)"><rect width="6" height="6"/></g>
<g transform="translate(576,96) scale(5.4933333333333)"><path d="M3,6H0V0l6,0v3C6,4.7,4.7,6,3,6z"/></g>
<g transform="translate(416,128) scale(5.4933333333333)"><path d="M6,6H3C1.3,6,0,4.7,0,3v0c0-1.7,1.3-3,3-3h3C6,0,6,6,6,6z"/></g>
<g transform="translate(448,128) scale(5.4933333333333)"><path d="M6,6H0V0l3,0c1.7,0,3,1.3,3,3V6z"/></g>
<g transform="translate(544,128) scale(5.4933333333333)"><path d="M3,6L3,6C1.3,6,0,4.7,0,3V0h6v3C6,4.7,4.7,6,3,6z"/></g>
<g transform="translate(320,160) scale(5.4933333333333)"><path d="M6,6H3C1.3,6,0,4.7,0,3v0c0-1.7,1.3-3,3-3h3C6,0,6,6,6,6z"/></g>
<g transform="translate(352,160) scale(5.4933333333333)"><rect width="6" height="6"/></g>
<g transform="translate(384,160) scale(5.4933333333333)"><path d="M3,6H0V0l3,0c1.7,0,3,1.3,3,3v0C6,4.7,4.7,6,3,6z"/></g>
<g transform="translate(448,160) scale(5.4933333333333)"><path d="M6,6H3C1.3,6,0,4.7,0,3V0l6,0V6z"/></g>
<g transform="translate(480,160) scale(5.4933333333333)"><rect width="6" height="6"/></g>
<g transform="translate(512,160) scale(5.4933333333333)"><path d="M3,6H0V0l3,0c1.7,0,3,1.3,3,3v0C6,4.7,4.7,6,3,6z"/></g>
<g transform="translate(352,192) scale(5.4933333333333)"><rect width="6" height="6"/></g>
<g transform="translate(416,192) scale(5.4933333333333)"><circle cx="3" cy="3" r="3"/></g>
<g transform="translate(576,192) scale(5.4933333333333)"><circle cx="3" cy="3" r="3"/></g>
<g transform="translate(320,224) scale(5.4933333333333)"><path d="M6,6H0V3c0-1.7,1.3-3,3-3l3,0V6z"/></g>
<g transform="translate(352,224) scale(5.4933333333333)"><path d="M3,6H0V0l6,0v3C6,4.7,4.7,6,3,6z"/></g>
<g transform="translate(512,224) scale(5.4933333333333)"><path d="M6,6H0V3c0-1.7,1.3-3,3-3l3,0V6z"/></g>
<g transform="translate(544,224) scale(5.4933333333333)"><path d="M3,6H0V0l3,0c1.7,0,3,1.3,3,3v0C6,4.7,4.7,6,3,6z"/></g>
<g transform="translate(320,256) scale(5.4933333333333)"><path d="M3,6L3,6C1.3,6,0,4.7,0,3V0h6v3C6,4.7,4.7,6,3,6z"/></g>
<g transform="translate(384,256) scale(5.4933333333333)"><path d="M6,6H0V3c0-1.7,1.3-3,3-3h0c1.7,0,3,1.3,3,3V6z"/></g>
<g transform="translate(448,256) scale(5.4933333333333)"><path d="M6,6H0V3c0-1.7,1.3-3,3-3h0c1.7,0,3,1.3,3,3V6z"/></g>
<g transform="translate(512,256) scale(5.4933333333333)"><rect width="6" height="6"/></g>
<g transform="translate(576,256) scale(5.4933333333333)"><circle cx="3" cy="3" r="3"/></g>
<g transform="translate(352,288) scale(5.4933333333333)"><path d="M6,6H0V3c0-1.7,1.3-3,3-3l3,0V6z"/></g>
<g transform="translate(384,288) scale(5.4933333333333)"><path d="M3,6H0V0l6,0v3C6,4.7,4.7,6,3,6z"/></g>
<g transform="translate(448,288) scale(5.4933333333333)"><rect width="6" height="6"/></g>
<g transform="translate(512,288) scale(5.4933333333333)"><rect width="6" height="6"/></g>
<g transform="translate(544,288) scale(5.4933333333333)"><path d="M6,6H0V0l3,0c1.7,0,3,1.3,3,3V6z"/></g>
<g transform="translate(64,320) scale(5.4933333333333)"><path d="M6,6H0V3c0-1.7,1.3-3,3-3l3,0V6z"/></g>
<g transform="translate(96,320) scale(5.4933333333333)"><rect width="6" height="6"/></g>
<g transform="translate(128,320) scale(5.4933333333333)"><rect width="6" height="6"/></g>
<g transform="translate(160,320) scale(5.4933333333333)"><rect width="6" height="6"/></g>
<g transform="translate(192,320) scale(5.4933333333333)"><path d="M6,6H0V0l3,0c1.7,0,3,1.3,3,3V6z"/></g>
<g transform="translate(256,320) scale(5.4933333333333)"><path d="M6,6H3C1.3,6,0,4.7,0,3v0c0-1.7,1.3-3,3-3h3C6,0,6,6,6,6z"/></g>
<g transform="translate(288,320) scale(5.4933333333333)"><rect width="6" height="6"/></g>
<g transform="translate(320,320) scale(5.4933333333333)"><rect width="6" height="6"/></g>
<g transform="translate(352,320) scale(5.4933333333333)"><path d="M3,6H0V0l6,0v3C6,4.7,4.7,6,3,6z"/></g>
<g transform="translate(416,320) scale(5.4933333333333)"><path d="M6,6H0V3c0-1.7,1.3-3,3-3l3,0V6z"/></g>
<g transform="translate(448,320) scale(5.4933333333333)"><rect width="6" height="6"/></g>
<g transform="translate(480,320) scale(5.4933333333333)"><rect width="6" height="6"/></g>
<g transform="translate(512,320) scale(5.4933333333333)"><rect width="6" height="6"/></g>
<g transform="translate(544,320) scale(5.4933333333333)"><rect width="6" height="6"/></g>
<g transform="translate(576,320) scale(5.4933333333333)"><rect width="6" height="6"/></g>
<g transform="translate(608,320) scale(5.4933333333333)"><path d="M3,6H0V0l3,0c1.7,0,3,1.3,3,3v0C6,4.7,4.7,6,3,6z"/></g>
<g transform="translate(672,320) scale(5.4933333333333)"><path d="M6,6H0V3c0-1.7,1.3-3,3-3h0c1.7,0,3,1.3,3,3V6z"/></g>
<g transform="translate(736,320) scale(5.4933333333333)"><circle cx="3" cy="3" r="3"/></g>
<g transform="translate(800,320) scale(5.4933333333333)"><path d="M6,6H0V3c0-1.7,1.3-3,3-3h0c1.7,0,3,1.3,3,3V6z"/></g>
<g transform="translate(64,352) scale(5.4933333333333)"><path d="M6,6H3C1.3,6,0,4.7,0,3V0l6,0V6z"/></g>
<g transform="translate(96,352) scale(5.4933333333333)"><rect width="6" height="6"/></g>
<g transform="translate(128,352) scale(5.4933333333333)"><rect width="6" height="6"/></g>
<g transform="translate(192,352) scale(5.4933333333333)"><path d="M3,6L3,6C1.3,6,0,4.7,0,3V0h6v3C6,4.7,4.7,6,3,6z"/></g>
<g transform="translate(320,352) scale(5.4933333333333)"><path d="M3,6L3,6C1.3,6,0,4.7,0,3V0h6v3C6,4.7,4.7,6,3,6z"/></g>
<g transform="translate(384,352) scale(5.4933333333333)"><path d="M6,6H0V3c0-1.7,1.3-3,3-3l3,0V6z"/></g>
<g transform="translate(416,352) scale(5.4933333333333)"><path d="M3,6H0V0l6,0v3C6,4.7,4.7,6,3,6z"/></g>
<g transform="translate(480,352) scale(5.4933333333333)"><rect width="6" height="6"/></g>
<g transform="translate(544,352) scale(5.4933333333333)"><rect width="6" height="6"/></g>
<g transform="translate(576,352) scale(5.4933333333333)"><rect width="6" height="6"/></g>
<g transform="translate(672,352) scale(5.4933333333333)"><path d="M3,6L3,6C1.3,6,0,4.7,0,3V0h6v3C6,4.7,4.7,6,3,6z"/></g>
<g transform="translate(800,352) scale(5.4933333333333)"><rect width="6" height="6"/></g>
<g transform="translate(96,384) scale(5.4933333333333)"><path d="M6,6H3C1.3,6,0,4.7,0,3V0l6,0V6z"/></g>
<g transform="translate(128,384) scale(5.4933333333333)"><rect width="6" height="6"/></g>
<g transform="translate(160,384) scale(5.4933333333333)"><path d="M6,6H0V0l3,0c1.7,0,3,1.3,3,3V6z"/></g>
<g transform="translate(224,384) scale(5.4933333333333)"><path d="M6,6H3C1.3,6,0,4.7,0,3v0c0-1.7,1.3-3,3-3h3C6,0,6,6,6,6z"/></g>
<g transform="translate(256,384) scale(5.4933333333333)"><rect width="6" height="6"/></g>
<g transform="translate(288,384) scale(5.4933333333333)"><path d="M3,6H0V0l3,0c1.7,0,3,1.3,3,3v0C6,4.7,4.7,6,3,6z"/></g>
<g transform="translate(384,384) scale(5.4933333333333)"><path d="M3,6L3,6C1.3,6,0,4.7,0,3V0h6v3C6,4.7,4.7,6,3,6z"/></g>
<g transform="translate(448,384) scale(5.4933333333333)"><path d="M6,6H3C1.3,6,0,4.7,0,3v0c0-1.7,1.3-3,3-3h3C6,0,6,6,6,6z"/></g>
<g transform="translate(480,384) scale(5.4933333333333)"><rect width="6" height="6"/></g>
<g transform="translate(512,384) scale(5.4933333333333)"><rect width="6" height="6"/></g>
<g transform="translate(544,384) scale(5.4933333333333)"><rect width="6" height="6"/></g>
<g transform="translate(576,384) scale(5.4933333333333)"><rect width="6" height="6"/></g>
<g transform="translate(640,384) scale(5.4933333333333)"><circle cx="3" cy="3" r="3"/></g>
<g transform="translate(704,384) scale(5.4933333333333)"><path d="M6,6H3C1.3,6,0,4.7,0,3v0c0-1.7,1.3-3,3-3h3C6,0,6,6,6,6z"/></g>
<g transform="translate(736,384) scale(5.4933333333333)"><path d="M3,6H0V0l3,0c1.7,0,3,1.3,3,3v0C6,4.7,4.7,6,3,6z"/></g>
<g transform="translate(800,384) scale(5.4933333333333)"><path d="M6,6H3C1.3,6,0,4.7,0,3V0l6,0V6z"/></g>
<g transform="translate(832,384) scale(5.4933333333333)"><path d="M6,6H0V0l3,0c1.7,0,3,1.3,3,3V6z"/></g>
<g transform="translate(160,416) scale(5.4933333333333)"><path d="M6,6H3C1.3,6,0,4.7,0,3V0l6,0V6z"/></g>
<g transform="translate(192,416) scale(5.4933333333333)"><path d="M6,6H0V0l3,0c1.7,0,3,1.3,3,3V6z"/></g>
<g transform="translate(320,416) scale(5.4933333333333)"><path d="M6,6H0V3c0-1.7,1.3-3,3-3h0c1.7,0,3,1.3,3,3V6z"/></g>
<g transform="translate(416,416) scale(5.4933333333333)"><path d="M6,6H0V3c0-1.7,1.3-3,3-3h0c1.7,0,3,1.3,3,3V6z"/></g>
<g transform="translate(576,416) scale(5.4933333333333)"><path d="M3,6L3,6C1.3,6,0,4.7,0,3V0h6v3C6,4.7,4.7,6,3,6z"/></g>
<g transform="translate(672,416) scale(5.4933333333333)"><circle cx="3" cy="3" r="3"/></g>
<g transform="translate(832,416) scale(5.4933333333333)"><rect width="6" height="6"/></g>
<g transform="translate(64,448) scale(5.4933333333333)"><path d="M6,6H0V3c0-1.7,1.3-3,3-3l3,0V6z"/></g>
<g transform="translate(96,448) scale(5.4933333333333)"><rect width="6" height="6"/></g>
<g transform="translate(128,448) scale(5.4933333333333)"><path d="M3,6H0V0l3,0c1.7,0,3,1.3,3,3v0C6,4.7,4.7,6,3,6z"/></g>
<g transform="translate(192,448) scale(5.4933333333333)"><path d="M6,6H3C1.3,6,0,4.7,0,3V0l6,0V6z"/></g>
<g transform="translate(224,448) scale(5.4933333333333)"><rect width="6" height="6"/></g>
<g transform="translate(256,448) scale(5.4933333333333)"><path d="M3,6H0V0l3,0c1.7,0,3,1.3,3,3v0C6,4.7,4.7,6,3,6z"/></g>
<g transform="translate(320,448) scale(5.4933333333333)"><rect width="6" height="6"/></g>
<g transform="translate(352,448) scale(5.4933333333333)"><rect width="6" height="6"/></g>
<g transform="translate(384,448) scale(5.4933333333333)"><rect width="6" height="6"/></g>
<g transform="translate(416,448) scale(5.4933333333333)"><rect width="6" height="6"/></g>
<g transform="translate(448,448) scale(5.4933333333333)"><rect width="6" height="6"/></g>
<g transform="translate(480,448) scale(5.4933333333333)"><rect width="6" height="6"/></g>
<g transform="translate(512,448) scale(5.4933333333333)"><path d="M6,6H0V0l3,0c1.7,0,3,1.3,3,3V6z"/></g>
<g transform="translate(640,448) scale(5.4933333333333)"><circle cx="3" cy="3" r="3"/></g>
<g transform="translate(704,448) scale(5.4933333333333)"><circle cx="3" cy="3" r="3"/></g>
<g transform="translate(768,448) scale(5.4933333333333)"><path d="M6,6H3C1.3,6,0,4.7,0,3v0c0-1.7,1.3-3,3-3h3C6,0,6,6,6,6z"/></g>
<g transform="translate(800,448) scale(5.4933333333333)"><rect width="6" height="6"/></g>
<g transform="translate(832,448) scale(5.4933333333333)"><path d="M3,6H0V0l6,0v3C6,4.7,4.7,6,3,6z"/></g>
<g transform="translate(64,480) scale(5.4933333333333)"><rect width="6" height="6"/></g>
<g transform="translate(288,480) scale(5.4933333333333)"><path d="M6,6H0V3c0-1.7,1.3-3,3-3l3,0V6z"/></g>
<g transform="translate(320,480) scale(5.4933333333333)"><rect width="6" height="6"/></g>
<g transform="translate(416,480) scale(5.4933333333333)"><path d="M3,6L3,6C1.3,6,0,4.7,0,3V0h6v3C6,4.7,4.7,6,3,6z"/></g>
<g transform="translate(512,480) scale(5.4933333333333)"><rect width="6" height="6"/></g>
<g transform="translate(672,480) scale(5.4933333333333)"><path d="M6,6H0V3c0-1.7,1.3-3,3-3h0c1.7,0,3,1.3,3,3V6z"/></g>
<g transform="translate(736,480) scale(5.4933333333333)"><path d="M6,6H0V3c0-1.7,1.3-3,3-3h0c1.7,0,3,1.3,3,3V6z"/></g>
<g transform="translate(800,480) scale(5.4933333333333)"><rect width="6" height="6"/></g>
<g transform="translate(64,512) scale(5.4933333333333)"><rect width="6" height="6"/></g>
<g transform="translate(192,512) scale(5.4933333333333)"><path d="M6,6H3C1.3,6,0,4.7,0,3v0c0-1.7,1.3-3,3-3h3C6,0,6,6,6,6z"/></g>
<g transform="translate(224,512) scale(5.4933333333333)"><rect width="6" height="6"/></g>
<g transform="translate(256,512) scale(5.4933333333333)"><rect width="6" height="6"/></g>
<g transform="translate(288,512) scale(5.4933333333333)"><rect width="6" height="6"/></g>
<g transform="translate(320,512) scale(5.4933333333333)"><rect width="6" height="6"/></g>
<g transform="translate(512,512) scale(5.4933333333333)"><path d="M6,6H3C1.3,6,0,4.7,0,3V0l6,0V6z"/></g>
<g transform="translate(544,512) scale(5.4933333333333)"><rect width="6" height="6"/></g>
<g transform="translate(576,512) scale(5.4933333333333)"><rect width="6" height="6"/></g>
<g transform="translate(608,512) scale(5.4933333333333)"><path d="M3,6H0V0l3,0c1.7,0,3,1.3,3,3v0C6,4.7,4.7,6,3,6z"/></g>
<g transform="translate(672,512) scale(5.4933333333333)"><rect width="6" height="6"/></g>
<g transform="translate(704,512) scale(5.4933333333333)"><rect width="6" height="6"/></g>
<g transform="translate(736,512) scale(5.4933333333333)"><path d="M3,6H0V0l6,0v3C6,4.7,4.7,6,3,6z"/></g>
<g transform="translate(800,512) scale(5.4933333333333)"><path d="M6,6H3C1.3,6,0,4.7,0,3V0l6,0V6z"/></g>
<g transform="translate(832,512) scale(5.4933333333333)"><path d="M6,6H0V0l3,0c1.7,0,3,1.3,3,3V6z"/></g>
<g transform="translate(64,544) scale(5.4933333333333)"><rect width="6" height="6"/></g>
<g transform="translate(288,544) scale(5.4933333333333)"><path d="M6,6H3C1.3,6,0,4.7,0,3V0l6,0V6z"/></g>
<g transform="translate(320,544) scale(5.4933333333333)"><rect width="6" height="6"/></g>
<g transform="translate(352,544) scale(5.4933333333333)"><path d="M6,6H0V0l3,0c1.7,0,3,1.3,3,3V6z"/></g>
<g transform="translate(448,544) scale(5.4933333333333)"><path d="M6,6H0V3c0-1.7,1.3-3,3-3h0c1.7,0,3,1.3,3,3V6z"/></g>
<g transform="translate(544,544) scale(5.4933333333333)"><path d="M6,6H3C1.3,6,0,4.7,0,3V0l6,0V6z"/></g>
<g transform="translate(576,544) scale(5.4933333333333)"><rect width="6" height="6"/></g>
<g transform="translate(672,544) scale(5.4933333333333)"><rect width="6" height="6"/></g>
<g transform="translate(704,544) scale(5.4933333333333)"><rect width="6" height="6"/></g>
<g transform="translate(832,544) scale(5.4933333333333)"><path d="M3,6L3,6C1.3,6,0,4.7,0,3V0h6v3C6,4.7,4.7,6,3,6z"/></g>
<g transform="translate(64,576) scale(5.4933333333333)"><path d="M3,6L3,6C1.3,6,0,4.7,0,3V0h6v3C6,4.7,4.7,6,3,6z"/></g>
<g transform="translate(256,576) scale(5.4933333333333)"><circle cx="3" cy="3" r="3"/></g>
<g transform="translate(320,576) scale(5.4933333333333)"><rect width="6" height="6"/></g>
<g transform="translate(352,576) scale(5.4933333333333)"><path d="M3,6H0V0l6,0v3C6,4.7,4.7,6,3,6z"/></g>
<g transform="translate(416,576) scale(5.4933333333333)"><path d="M6,6H0V3c0-1.7,1.3-3,3-3l3,0V6z"/></g>
<g transform="translate(448,576) scale(5.4933333333333)"><rect width="6" height="6"/></g>
<g transform="translate(480,576) scale(5.4933333333333)"><rect width="6" height="6"/></g>
<g transform="translate(512,576) scale(5.4933333333333)"><path d="M3,6H0V0l3,0c1.7,0,3,1.3,3,3v0C6,4.7,4.7,6,3,6z"/></g>
<g transform="translate(576,576) scale(5.4933333333333)"><rect width="6" height="6"/></g>
<g transform="translate(608,576) scale(5.4933333333333)"><rect width="6" height="6"/></g>
<g transform="translate(640,576) scale(5.4933333333333)"><rect width="6" height="6"/></g>
<g transform="translate(672,576) scale(5.4933333333333)"><rect width="6" height="6"/></g>
<g transform="translate(704,576) scale(5.4933333333333)"><rect width="6" height="6"/></g>
<g transform="translate(768,576) scale(5.4933333333333)"><circle cx="3" cy="3" r="3"/></g>
<g transform="translate(320,608) scale(5.4933333333333)"><rect width="6" height="6"/></g>
<g transform="translate(416,608) scale(5.4933333333333)"><path d="M3,6L3,6C1.3,6,0,4.7,0,3V0h6v3C6,4.7,4.7,6,3,6z"/></g>
<g transform="translate(544,608) scale(5.4933333333333)"><path d="M6,6H3C1.3,6,0,4.7,0,3v0c0-1.7,1.3-3,3-3h3C6,0,6,6,6,6z"/></g>
<g transform="translate(576,608) scale(5.4933333333333)"><rect width="6" height="6"/></g>
<g transform="translate(704,608) scale(5.4933333333333)"><rect width="6" height="6"/></g>
<g transform="translate(736,608) scale(5.4933333333333)"><path d="M3,6H0V0l3,0c1.7,0,3,1.3,3,3v0C6,4.7,4.7,6,3,6z"/></g>
<g transform="translate(320,640) scale(5.4933333333333)"><path d="M6,6H3C1.3,6,0,4.7,0,3V0l6,0V6z"/></g>
<g transform="translate(352,640) scale(5.4933333333333)"><rect width="6" height="6"/></g>
<g transform="translate(384,640) scale(5.4933333333333)"><path d="M3,6H0V0l3,0c1.7,0,3,1.3,3,3v0C6,4.7,4.7,6,3,6z"/></g>
<g transform="translate(448,640) scale(5.4933333333333)"><circle cx="3" cy="3" r="3"/></g>
<g transform="translate(576,640) scale(5.4933333333333)"><rect width="6" height="6"/></g>
<g transform="translate(640,640) scale(5.4933333333333)"><circle cx="3" cy="3" r="3"/></g>
<g transform="translate(704,640) scale(5.4933333333333)"><rect width="6" height="6"/></g>
<g transform="translate(768,640) scale(5.4933333333333)"><path d="M6,6H3C1.3,6,0,4.7,0,3v0c0-1.7,1.3-3,3-3h3C6,0,6,6,6,6z"/></g>
<g transform="translate(800,640) scale(5.4933333333333)"><rect width="6" height="6"/></g>
<g transform="translate(832,640) scale(5.4933333333333)"><path d="M6,6H0V0l3,0c1.7,0,3,1.3,3,3V6z"/></g>
<g transform="translate(512,672) scale(5.4933333333333)"><path d="M6,6H0V3c0-1.7,1.3-3,3-3h0c1.7,0,3,1.3,3,3V6z"/></g>
<g transform="translate(576,672) scale(5.4933333333333)"><rect width="6" height="6"/></g>
<g transform="translate(704,672) scale(5.4933333333333)"><rect width="6" height="6"/></g>
<g transform="translate(736,672) scale(5.4933333333333)"><path d="M3,6H0V0l3,0c1.7,0,3,1.3,3,3v0C6,4.7,4.7,6,3,6z"/></g>
<g transform="translate(800,672) scale(5.4933333333333)"><rect width="6" height="6"/></g>
<g transform="translate(832,672) scale(5.4933333333333)"><path d="M3,6H0V0l6,0v3C6,4.7,4.7,6,3,6z"/></g>
<g transform="translate(320,704) scale(5.4933333333333)"><path d="M6,6H0V3c0-1.7,1.3-3,3-3h0c1.7,0,3,1.3,3,3V6z"/></g>
<g transform="translate(416,704) scale(5.4933333333333)"><path d="M6,6H0V3c0-1.7,1.3-3,3-3l3,0V6z"/></g>
<g transform="translate(448,704) scale(5.4933333333333)"><rect width="6" height="6"/></g>
<g transform="translate(480,704) scale(5.4933333333333)"><rect width="6" height="6"/></g>
<g transform="translate(512,704) scale(5.4933333333333)"><rect width="6" height="6"/></g>
<g transform="translate(544,704) scale(5.4933333333333)"><rect width="6" height="6"/></g>
<g transform="translate(576,704) scale(5.4933333333333)"><rect width="6" height="6"/></g>
<g transform="translate(608,704) scale(5.4933333333333)"><rect width="6" height="6"/></g>
<g transform="translate(640,704) scale(5.4933333333333)"><rect width="6" height="6"/></g>
<g transform="translate(672,704) scale(5.4933333333333)"><rect width="6" height="6"/></g>
<g transform="translate(704,704) scale(5.4933333333333)"><rect width="6" height="6"/></g>
<g transform="translate(768,704) scale(5.4933333333333)"><path d="M6,6H0V3c0-1.7,1.3-3,3-3l3,0V6z"/></g>
<g transform="translate(800,704) scale(5.4933333333333)"><rect width="6" height="6"/></g>
<g transform="translate(320,736) scale(5.4933333333333)"><rect width="6" height="6"/></g>
<g transform="translate(352,736) scale(5.4933333333333)"><path d="M6,6H0V0l3,0c1.7,0,3,1.3,3,3V6z"/></g>
<g transform="translate(416,736) scale(5.4933333333333)"><path d="M3,6L3,6C1.3,6,0,4.7,0,3V0h6v3C6,4.7,4.7,6,3,6z"/></g>
<g transform="translate(480,736) scale(5.4933333333333)"><path d="M3,6L3,6C1.3,6,0,4.7,0,3V0h6v3C6,4.7,4.7,6,3,6z"/></g>
<g transform="translate(576,736) scale(5.4933333333333)"><rect width="6" height="6"/></g>
<g transform="translate(608,736) scale(5.4933333333333)"><rect width="6" height="6"/></g>
<g transform="translate(640,736) scale(5.4933333333333)"><path d="M3,6H0V0l6,0v3C6,4.7,4.7,6,3,6z"/></g>
<g transform="translate(704,736) scale(5.4933333333333)"><path d="M6,6H3C1.3,6,0,4.7,0,3V0l6,0V6z"/></g>
<g transform="translate(736,736) scale(5.4933333333333)"><rect width="6" height="6"/></g>
<g transform="translate(768,736) scale(5.4933333333333)"><rect width="6" height="6"/></g>
<g transform="translate(800,736) scale(5.4933333333333)"><rect width="6" height="6"/></g>
<g transform="translate(832,736) scale(5.4933333333333)"><path d="M6,6H0V0l3,0c1.7,0,3,1.3,3,3V6z"/></g>
<g transform="translate(320,768) scale(5.4933333333333)"><rect width="6" height="6"/></g>
<g transform="translate(352,768) scale(5.4933333333333)"><rect width="6" height="6"/></g>
<g transform="translate(384,768) scale(5.4933333333333)"><path d="M3,6H0V0l3,0c1.7,0,3,1.3,3,3v0C6,4.7,4.7,6,3,6z"/></g>
<g transform="translate(512,768) scale(5.4933333333333)"><circle cx="3" cy="3" r="3"/></g>
<g transform="translate(576,768) scale(5.4933333333333)"><rect width="6" height="6"/></g>
<g transform="translate(736,768) scale(5.4933333333333)"><rect width="6" height="6"/></g>
<g transform="translate(768,768) scale(5.4933333333333)"><path d="M3,6H0V0l6,0v3C6,4.7,4.7,6,3,6z"/></g>
<g transform="translate(832,768) scale(5.4933333333333)"><rect width="6" height="6"/></g>
<g transform="translate(320,800) scale(5.4933333333333)"><rect width="6" height="6"/></g>
<g transform="translate(352,800) scale(5.4933333333333)"><rect width="6" height="6"/></g>
<g transform="translate(416,800) scale(5.4933333333333)"><path d="M6,6H3C1.3,6,0,4.7,0,3v0c0-1.7,1.3-3,3-3h3C6,0,6,6,6,6z"/></g>
<g transform="translate(448,800) scale(5.4933333333333)"><path d="M6,6H0V0l3,0c1.7,0,3,1.3,3,3V6z"/></g>
<g transform="translate(544,800) scale(5.4933333333333)"><path d="M6,6H3C1.3,6,0,4.7,0,3v0c0-1.7,1.3-3,3-3h3C6,0,6,6,6,6z"/></g>
<g transform="translate(576,800) scale(5.4933333333333)"><path d="M3,6H0V0l6,0v3C6,4.7,4.7,6,3,6z"/></g>
<g transform="translate(640,800) scale(5.4933333333333)"><path d="M6,6H3C1.3,6,0,4.7,0,3v0c0-1.7,1.3-3,3-3h3C6,0,6,6,6,6z"/></g>
<g transform="translate(672,800) scale(5.4933333333333)"><rect width="6" height="6"/></g>
<g transform="translate(704,800) scale(5.4933333333333)"><rect width="6" height="6"/></g>
<g transform="translate(736,800) scale(5.4933333333333)"><rect width="6" height="6"/></g>
<g transform="translate(832,800) scale(5.4933333333333)"><rect width="6" height="6"/></g>
<g transform="translate(320,832) scale(5.4933333333333)"><path d="M6,6H3C1.3,6,0,4.7,0,3V0l6,0V6z"/></g>
<g transform="translate(352,832) scale(5.4933333333333)"><path d="M3,6H0V0l6,0v3C6,4.7,4.7,6,3,6z"/></g>
<g transform="translate(448,832) scale(5.4933333333333)"><path d="M3,6L3,6C1.3,6,0,4.7,0,3V0h6v3C6,4.7,4.7,6,3,6z"/></g>
<g transform="translate(512,832) scale(5.4933333333333)"><circle cx="3" cy="3" r="3"/></g>
<g transform="translate(608,832) scale(5.4933333333333)"><circle cx="3" cy="3" r="3"/></g>
<g transform="translate(672,832) scale(5.4933333333333)"><path d="M6,6H3C1.3,6,0,4.7,0,3V0l6,0V6z"/></g>
<g transform="translate(704,832) scale(5.4933333333333)"><rect width="6" height="6"/></g>
<g transform="translate(736,832) scale(5.4933333333333)"><rect width="6" height="6"/></g>
<g transform="translate(768,832) scale(5.4933333333333)"><rect width="6" height="6"/></g>
<g transform="translate(800,832) scale(5.4933333333333)"><rect width="6" height="6"/></g>
<g transform="translate(832,832) scale(5.4933333333333)"><path d="M3,6H0V0l6,0v3C6,4.7,4.7,6,3,6z"/></g>
<g transform="translate(64,64)"><g transform="scale(16)"><path d="M0,7L0,7c0,3.9,3.1,7,7,7h0c3.9,0,7-3.1,7-7v0c0-3.9-3.1-7-7-7h0C3.1,0,0,3.1,0,7z M7,12L7,12c-2.8,0-5-2.2-5-5v0 c0-2.8,2.2-5,5-5h0c2.8,0,5,2.2,5,5v0C12,9.8,9.8,12,7,12z"/></g></g>
<g transform="translate(640,64)"><g transform="scale(16)"><path d="M0,7L0,7c0,3.9,3.1,7,7,7h0c3.9,0,7-3.1,7-7v0c0-3.9-3.1-7-7-7h0C3.1,0,0,3.1,0,7z M7,12L7,12c-2.8,0-5-2.2-5-5v0 c0-2.8,2.2-5,5-5h0c2.8,0,5,2.2,5,5v0C12,9.8,9.8,12,7,12z"/></g></g>
<g transform="translate(64,640)"><g transform="scale(16)"><path d="M0,7L0,7c0,3.9,3.1,7,7,7h0c3.9,0,7-3.1,7-7v0c0-3.9-3.1-7-7-7h0C3.1,0,0,3.1,0,7z M7,12L7,12c-2.8,0-5-2.2-5-5v0 c0-2.8,2.2-5,5-5h0c2.8,0,5,2.2,5,5v0C12,9.8,9.8,12,7,12z"/></g></g>
<g transform="translate(128,128)"><g transform="scale(16)"><circle cx="3" cy="3" r="3"/></g></g>
<g transform="translate(704,128)"><g transform="scale(16)"><circle cx="3" cy="3" r="3"/></g></g>
<g transform="translate(128,704)"><g transform="scale(16)"><circle cx="3" cy="3" r="3"/></g></g>
</g></svg>
